<?xml version="1.0" standalone="no"?>
<!DOCTYPE svg PUBLIC "-//W3C//DTD SVG 20010904//EN"
 "http://www.w3.org/TR/2001/REC-SVG-20010904/DTD/svg10.dtd">
<svg version="1.0" xmlns="http://www.w3.org/2000/svg"
 width="1392.000000pt" height="1392.000000pt" viewBox="0 0 1392.000000 1392.000000"
 preserveAspectRatio="xMidYMid meet">
<metadata>
Created by potrace 1.11, written by Peter Selinger 2001-2013
</metadata>
<g transform="translate(0.000000,1392.000000) scale(0.100000,-0.100000)"
fill="#000000" stroke="none">
<path d="M3600 11683 c0 -7 67 -93 84 -108 23 -20 123 -182 156 -250 18 -38
39 -82 46 -97 8 -14 14 -31 14 -38 0 -7 6 -26 14 -43 13 -30 35 -105 39 -137
2 -8 5 -19 8 -25 4 -5 5 -20 4 -32 -1 -13 2 -23 6 -23 4 0 6 -8 5 -17 -2 -10
2 -21 8 -25 8 -5 7 -8 -2 -8 -7 0 -10 -5 -6 -11 8 -14 13 -62 18 -170 2 -48 6
-91 9 -96 4 -6 4 -13 0 -17 -4 -3 -8 -39 -9 -79 -6 -138 -11 -208 -18 -214 -3
-3 -7 1 -7 10 -2 19 -3 25 -11 47 -13 33 -40 136 -41 153 -1 9 -5 17 -10 17
-4 0 -7 8 -6 18 1 9 -1 25 -4 35 -4 9 -10 25 -14 35 -3 9 -7 22 -8 27 -2 6
-13 44 -26 85 -13 41 -24 77 -24 80 -1 3 -12 38 -24 78 -21 66 -41 101 -41 71
0 -7 -11 -27 -25 -45 -14 -18 -25 -35 -25 -39 0 -9 -98 -153 -154 -225 -63
-81 -86 -108 -161 -189 -103 -111 -208 -209 -349 -326 -27 -22 -60 -50 -73
-61 -15 -13 -57 -28 -109 -38 -200 -39 -313 -129 -406 -323 -21 -46 -42 -83
-47 -83 -16 0 -251 -243 -251 -260 0 -5 -4 -10 -8 -12 -13 -5 -102 -125 -102
-137 0 -6 -4 -11 -10 -11 -5 0 -10 -5 -10 -12 0 -6 -11 -26 -25 -44 -14 -18
-25 -39 -25 -47 0 -9 -3 -17 -7 -19 -7 -2 -42 -69 -48 -88 -1 -3 -8 -18 -15
-35 -7 -16 -13 -33 -12 -37 1 -5 -2 -8 -6 -8 -5 0 -9 -6 -10 -12 -1 -7 -18
-63 -39 -125 -21 -61 -40 -117 -41 -125 -2 -7 -6 -20 -8 -28 -2 -8 -9 -35 -15
-60 -6 -25 -13 -72 -14 -104 -3 -65 -8 -71 -71 -80 -39 -6 -57 -9 -124 -23
-19 -4 -41 -6 -47 -5 -7 2 -13 -1 -13 -6 0 -5 -13 -9 -30 -10 -16 -1 -37 -3
-45 -4 -19 -2 -43 -54 -55 -120 -5 -29 -8 -141 -6 -248 4 -211 8 -236 68 -357
44 -88 148 -193 208 -208 3 -1 12 -5 20 -8 8 -4 31 -8 50 -10 40 -3 36 16 45
-207 6 -158 14 -316 21 -435 4 -55 7 -115 8 -132 0 -18 3 -33 6 -33 3 0 5 -24
6 -53 0 -28 4 -81 8 -117 4 -36 9 -78 11 -95 3 -31 11 -93 20 -155 2 -19 7
-44 10 -56 2 -12 7 -39 10 -60 3 -21 10 -57 15 -79 10 -37 37 -161 44 -195 2
-8 6 -22 9 -30 3 -8 18 -55 33 -104 15 -49 36 -106 46 -127 10 -21 18 -42 18
-46 0 -8 38 -86 55 -113 5 -8 10 -17 10 -20 0 -12 97 -160 105 -160 9 0 26
-58 21 -74 -2 -9 -9 -108 -16 -236 -2 -30 -4 -55 -4 -55 -1 0 -4 -47 -6 -105
-3 -58 -7 -141 -9 -185 -11 -182 -26 -564 -31 -780 -4 -162 -15 -1043 -15
-1216 l0 -106 -42 8 c-89 18 -124 23 -155 24 -18 0 -33 3 -33 6 0 3 -6 6 -12
6 -7 1 -60 4 -118 9 -181 13 -340 7 -419 -16 -17 -5 -35 -9 -39 -10 -66 -8
-194 -63 -272 -117 -120 -83 -155 -165 -125 -290 4 -18 11 -33 16 -33 4 0 10
-8 13 -17 11 -34 186 -203 210 -203 3 0 25 -13 48 -28 76 -51 149 -92 163 -92
8 0 16 -4 19 -9 5 -7 91 -53 106 -56 3 0 34 -14 70 -30 36 -17 68 -29 73 -27
4 1 7 -2 7 -8 0 -5 11 -10 25 -10 14 0 25 -4 25 -10 0 -5 6 -10 14 -10 13 0
83 -26 153 -56 17 -8 36 -14 42 -14 6 0 25 -7 43 -15 18 -8 67 -24 108 -36 41
-12 78 -25 83 -29 7 -6 24 -910 17 -945 -2 -6 -1 -12 0 -15 1 -3 3 -75 4 -160
2 -85 6 -163 11 -173 16 -37 87 -55 125 -32 5 3 10 2 10 -3 0 -4 2013 -8 4625
-8 l4625 1 24 25 c18 18 27 39 30 75 9 81 17 194 21 285 2 47 7 139 10 205 6
116 13 540 15 793 l0 123 37 15 c20 9 45 17 54 19 9 2 25 8 35 14 11 6 42 20
69 31 28 12 59 25 70 29 82 35 287 144 369 198 90 58 226 181 226 203 0 5 7
15 15 23 8 9 16 30 17 49 2 18 7 36 13 40 12 9 -10 121 -25 126 -5 2 -10 9
-10 15 0 6 -24 33 -52 60 -63 58 -181 118 -298 151 -121 34 -332 48 -477 31
-46 -5 -53 -4 -54 12 -1 20 -7 185 -10 309 -1 44 1 86 5 92 4 7 4 12 -1 12 -4
0 -9 48 -9 108 -8 643 -27 1450 -39 1647 -2 39 -6 127 -10 196 -3 69 -7 135
-10 148 -3 15 7 34 29 59 18 20 48 59 67 87 19 27 40 56 47 63 7 8 10 17 7 22
-3 5 -2 10 3 12 7 3 83 135 81 141 -1 1 6 20 16 42 21 49 84 233 89 260 2 11
11 45 20 75 8 30 18 69 21 85 3 17 8 40 10 53 3 12 7 32 9 45 8 47 19 103 23
122 2 11 6 36 8 55 3 19 7 51 10 70 5 35 12 97 20 175 3 22 7 60 9 85 3 25 8
86 11 135 4 50 9 113 11 140 6 90 20 419 23 573 1 24 5 41 10 38 12 -8 125 23
129 34 2 6 9 10 16 10 35 0 176 172 176 214 0 8 4 16 10 18 5 2 11 12 13 23 1
11 6 26 10 33 5 6 6 12 2 12 -3 0 0 10 7 23 18 34 19 424 1 496 -8 30 -20 62
-26 71 -13 16 -18 18 -70 24 -18 3 -32 5 -32 6 0 2 -16 5 -60 14 -66 13 -81
16 -105 22 -14 3 -42 7 -62 7 -21 1 -38 6 -38 10 0 4 -6 7 -12 6 -7 -1 -32 2
-55 6 -34 6 -43 12 -45 29 -2 30 -3 35 -17 92 -7 29 -14 58 -15 65 -4 23 -36
133 -45 154 -5 11 -28 67 -52 125 -53 127 -125 262 -161 304 -10 11 -18 26
-18 33 0 7 -4 13 -8 13 -5 0 -24 21 -42 47 -19 26 -69 82 -112 125 -43 43 -80
88 -82 100 -12 54 -15 66 -39 118 -50 113 -157 229 -258 281 -130 66 -363 84
-516 40 -5 -1 -12 -3 -20 -5 -45 -10 -185 -70 -208 -88 -16 -13 -85 -58 -90
-58 -6 0 -35 62 -35 77 0 7 -5 13 -11 13 -5 0 -7 5 -3 11 3 6 1 15 -5 19 -7 4
-13 13 -14 21 -2 8 -7 20 -11 28 -5 8 -25 44 -43 80 -36 69 -146 240 -179 278
-10 12 -30 37 -44 55 -42 54 -201 212 -270 267 -36 29 -72 58 -81 66 -43 34
-172 116 -244 155 -44 24 -83 49 -87 54 -4 6 -8 8 -8 4 0 -4 -16 1 -36 13 -34
19 -238 109 -259 114 -5 1 -23 7 -40 14 -105 43 -482 156 -586 175 -13 3 -24
5 -24 6 0 1 -10 3 -22 6 -12 2 -62 12 -110 23 -133 30 -481 97 -548 107 -68 9
-80 11 -80 14 0 1 -13 3 -30 5 -16 2 -48 6 -70 10 -22 3 -51 7 -65 9 -14 2
-25 5 -25 6 0 4 -135 22 -172 23 -7 0 -13 3 -13 7 0 3 -10 6 -22 6 -13 1 -41
4 -63 8 -22 4 -56 9 -75 12 -19 2 -44 7 -56 9 -12 3 -39 7 -60 10 -21 3 -55 8
-74 11 -19 4 -46 9 -60 11 -14 2 -40 5 -57 6 -18 1 -33 4 -33 7 0 3 -11 7 -25
8 -24 2 -35 -13 -16 -20 10 -3 150 -129 241 -215 l55 -53 -60 21 c-33 12 -68
23 -79 25 -10 2 -111 26 -225 55 -113 28 -215 52 -226 54 -11 1 -21 4 -22 5
-2 1 -11 3 -20 4 -10 1 -40 7 -68 14 -27 6 -61 14 -75 16 -24 5 -58 11 -110
22 -14 3 -38 7 -54 9 -15 2 -37 7 -48 11 -11 3 -39 8 -62 11 -57 6 -91 11 -91
13 0 3 -39 10 -85 14 -25 3 -45 5 -45 6 0 4 -73 13 -110 14 -22 1 -42 4 -45 7
-3 4 -34 9 -70 13 -36 3 -81 8 -100 11 -72 10 -173 21 -275 30 -33 3 -76 7
-95 9 -19 2 -78 7 -130 11 -52 3 -106 8 -120 10 -14 3 -70 7 -125 10 -55 3
-129 7 -165 10 -345 21 -407 24 -545 31 -66 3 -153 7 -192 9 -40 2 -73 1 -73
-2z m8180 -3858 c5 -42 -1 -50 -15 -23 -8 15 -12 34 -9 43 8 19 21 8 24 -20z"/>
</g>
</svg>
